<svg width="160" height="40" viewBox="0 0 160 40" fill="none" xmlns="http://www.w3.org/2000/svg">
  <rect width="40" height="40" rx="10" fill="url(#paint0_linear)"/>
  <path d="M10 28V12H20C24 12 27 14.6 27 18C27 21.4 24 24 20 24H15V28H10ZM15 20H19.7C21 20 22 19.2 22 18C22 16.8 21 16 19.7 16H15V20Z" fill="white"/>
  <path d="M30 12H35L40 19L45 12H50L42.8 21L50 30H45L40 23L35 30H30L37.2 21L30 12Z" fill="url(#paint1_linear)"/>
  <text x="58" y="27" fill="white" font-family="Inter, Arial, sans-serif" font-size="22" font-weight="700">BriefX</text>
  <defs>
    <linearGradient id="paint0_linear" x1="0" y1="0" x2="40" y2="40" gradientUnits="userSpaceOnUse">
      <stop stop-color="#22D3EE"/>
      <stop offset="1" stop-color="#7C3AED"/>
    </linearGradient>
    <linearGradient id="paint1_linear" x1="30" y1="12" x2="50" y2="30" gradientUnits="userSpaceOnUse">
      <stop stop-color="#60A5FA"/>
      <stop offset="1" stop-color="#A855F7"/>
    </linearGradient>
  </defs>
</svg>
